<svg id="Capa_1" enable-background="new 0 0 497 497" height="512" viewBox="0 0 497 497" width="512" xmlns="http://www.w3.org/2000/svg"><g><path d="m482 187.5v242c0 4.142-3.358 7.5-7.5 7.5h-22.5l-15-30v-197l15-30h22.5c4.142 0 7.5 3.358 7.5 7.5z" fill="#3b88f5"/><path d="m452 180v257h-56.75c-4.142 0-7.5-3.358-7.5-7.5v-242c0-4.142 3.358-7.5 7.5-7.5z" fill="#28a6fa"/><path d="m233.5 97.5v332c0 4.142-3.358 7.5-7.5 7.5h-22.5l-15-30v-287l15-30h22.5c4.142 0 7.5 3.358 7.5 7.5z" fill="#ffbc2b"/><path d="m203.5 90v347h-56.75c-4.142 0-7.5-3.358-7.5-7.5v-332c0-4.142 3.358-7.5 7.5-7.5z" fill="#ffcf66"/><path d="m109.25 277.5v152c0 4.142-3.358 7.5-7.5 7.5h-22.5l-15-30v-107l15-30h22.5c4.142 0 7.5 3.358 7.5 7.5z" fill="#ff6333"/><path d="m79.25 270v167h-56.75c-4.142 0-7.5-3.358-7.5-7.5v-152c0-4.142 3.358-7.5 7.5-7.5z" fill="#ff8730"/><path d="m357.75 7.5v422c0 4.142-3.358 7.5-7.5 7.5h-22.5l-15-30v-377l15-30h22.5c4.142 0 7.5 3.358 7.5 7.5z" fill="#61ce5a"/><path d="m327.75 0v437h-56.75c-4.142 0-7.5-3.358-7.5-7.5v-422c0-4.142 3.358-7.5 7.5-7.5z" fill="#94e368"/><path d="m482 467h-30v30h30c8.284 0 15-6.716 15-15s-6.716-15-15-15z" fill="#8ae7ff"/><path d="m467 482c0-8.284-6.716-15-15-15h-437c-8.284 0-15 6.716-15 15s6.716 15 15 15h437c8.284 0 15-6.716 15-15z" fill="#bdf2ff"/></g></svg>