<svg id="flat" height="512" viewBox="0 0 512 512" width="512" xmlns="http://www.w3.org/2000/svg"><path d="m88 128h24v32h-24z" fill="#ffbfa1" transform="matrix(-1 0 0 -1 200 288)"/><path d="m176 176v56l-40-40v104h-112v-112a32.00409 32.00409 0 0 1 32-32h77.33008a32.01753 32.01753 0 0 1 19.2 6.3999z" fill="#ffb401"/><path d="m112 184 8 56h-32l8-56z" fill="#ef5e3b"/><path d="m96 184-8-16 16-8 16 8-8 16z" fill="#e04f2b"/><path d="m24 296h112v200h-112z" fill="#718799"/><path d="m95.16433 344.75639-15.12433 151.24361h-16.08l15.2836-152.83568a8.00007 8.00007 0 0 1 8.7604-7.16392 8.00007 8.00007 0 0 1 7.16033 8.75599z" fill="#62798c"/><g fill="#c5dafa"><path d="m360 280a7.97772 7.97772 0 0 1 -5.65723-2.34277l-10.34277-10.34375-10.34277 10.34375-11.31446-11.31446 16-16a8.003 8.003 0 0 1 11.31446 0l10.34277 10.34375 10.34277-10.34375 11.31446 11.31446-16 16a7.97772 7.97772 0 0 1 -5.65723 2.34277z"/><path d="m360 320a7.97772 7.97772 0 0 1 -5.65723-2.34277l-10.34277-10.34375-10.34277 10.34375-11.31446-11.31446 16-16a8.003 8.003 0 0 1 11.31446 0l10.34277 10.34375 10.34277-10.34375 11.31446 11.31446-16 16a7.97772 7.97772 0 0 1 -5.65723 2.34277z"/><path d="m360 128a7.97772 7.97772 0 0 1 -5.65723-2.34277l-10.34277-10.34375-10.34277 10.34375-11.31446-11.31446 16-16a8.003 8.003 0 0 1 11.31446 0l10.34277 10.34375 10.34277-10.34375 11.31446 11.31446-16 16a7.97772 7.97772 0 0 1 -5.65723 2.34277z"/><path d="m360 168a7.97772 7.97772 0 0 1 -5.65723-2.34277l-10.34277-10.34375-10.34277 10.34375-11.31446-11.31446 16-16a8.003 8.003 0 0 1 11.31446 0l10.34277 10.34375 10.34277-10.34375 11.31446 11.31446-16 16a7.97772 7.97772 0 0 1 -5.65723 2.34277z"/></g><path d="m120 120h-24l-8 8v8a16 16 0 0 0 16 16 16 16 0 0 0 16-16z" fill="#ffceb6"/><path d="m120 120 4.68629-4.68629a11.31372 11.31372 0 0 0 3.31371-8 11.31369 11.31369 0 0 0 -11.3137-11.31371h-12.6863a16 16 0 0 0 -16 16v16l8-8z" fill="#db8638"/><path d="m135.99979 176.00028a7.99968 7.99968 0 0 1 -11.1995 1.59986l-20.80029-15.60014-20.80028 15.60016a7.99968 7.99968 0 0 1 -11.1995-1.59986 7.99969 7.99969 0 0 1 1.6003-11.2l17.0694-12.8003h26.66016l17.06941 12.80033a7.99969 7.99969 0 0 1 1.6003 11.19995z" fill="#ffa100"/><path d="m208 208a55.9679 55.9679 0 0 0 56 56h32v40h-32q-4.03491 0-8-.34009a95.99362 95.99362 0 0 1 0-191.32007q3.96021-.345 8-.33984h32v40h-32a55.9679 55.9679 0 0 0 -56 56z" fill="#ef5e3b"/><path d="m68 208 4 16 64 16 14.34315-14.34315a5.65684 5.65684 0 0 1 4-1.65685 5.65685 5.65685 0 0 1 5.65685 5.65685v10.34315h24v16a16 16 0 0 1 -16 16h-82.354a61.646 61.646 0 0 1 -61.646-61.646v-2.354z" fill="#ffceb6"/><path d="m296 112v40h-32a55.47723 55.47723 0 0 0 -8 .57007v-40.23023q3.96021-.345 8-.33984z" fill="#d1e4ff"/><path d="m264 264h32v40h-32q-4.03491 0-8-.34009v-40.23a55.47723 55.47723 0 0 0 8 .57009z" fill="#d1e4ff"/><path d="m472 72a16 16 0 0 1 16 16v40h-88v-40a16 16 0 0 1 16-16z" fill="#548aff"/><path d="m456 56v36a12 12 0 1 1 -24 0v-36z" fill="#ffceb6"/><path d="m456 56v32a15.99555 15.99555 0 0 1 -16-16v-16z" fill="#ffbfa1"/><path d="m464 48h-24l-8 8v8a16 16 0 0 0 16 16 16 16 0 0 0 16-16z" fill="#ffceb6"/><path d="m432 56v-16a16 16 0 0 1 16-16h12.6863a11.31369 11.31369 0 0 1 11.3137 11.3137 11.31372 11.31372 0 0 1 -3.31371 8l-4.68629 4.6863h-24z" fill="#c47220"/><path d="m472 208a16 16 0 0 1 16 16v40h-88v-40a16 16 0 0 1 16-16z" fill="#ffa100"/><path d="m456 192v36a12 12 0 1 1 -24 0v-36z" fill="#ffceb6"/><path d="m456 192v32a15.99555 15.99555 0 0 1 -16-16v-16z" fill="#ffbfa1"/><path d="m464 184h-24l-8 8v8a16 16 0 0 0 16 16 16 16 0 0 0 16-16z" fill="#ffceb6"/><path d="m432 192v-16a16 16 0 0 1 16-16h12.6863a11.31369 11.31369 0 0 1 11.3137 11.3137 11.31372 11.31372 0 0 1 -3.31371 8l-4.68629 4.6863h-24z" fill="#c47220"/><path d="m472 344a16 16 0 0 1 16 16v40h-88v-40a16 16 0 0 1 16-16z" fill="#02c26a"/><path d="m456 328v36a12 12 0 1 1 -24 0v-36z" fill="#ffceb6"/><path d="m456 328v32a15.99555 15.99555 0 0 1 -16-16v-16z" fill="#ffbfa1"/><path d="m464 320h-24l-8 8v8a16 16 0 0 0 16 16 16 16 0 0 0 16-16z" fill="#ffceb6"/><path d="m432 328v-16a16 16 0 0 1 16-16h12.6863a11.31369 11.31369 0 0 1 11.3137 11.3137 11.31372 11.31372 0 0 1 -3.31371 8l-4.68629 4.6863h-24z" fill="#c47220"/></svg>