<?xml version="1.0" encoding="UTF-8"?>
<!DOCTYPE svg PUBLIC "-//W3C//DTD SVG 1.1//EN" "http://www.w3.org/Graphics/SVG/1.1/DTD/svg11.dtd">
<!-- Creator: CorelDRAW 2019 (64 Bit) -->
<svg xmlns="http://www.w3.org/2000/svg" xml:space="preserve" width="35.1593mm" height="35.1686mm" version="1.1" style="shape-rendering:geometricPrecision; text-rendering:geometricPrecision; image-rendering:optimizeQuality; fill-rule:evenodd; clip-rule:evenodd"
viewBox="0 0 1196.32 1196.63"
 xmlns:xlink="http://www.w3.org/1999/xlink">
 <defs>
  <style type="text/css">
   <![CDATA[
    .fil0 {fill:#CC0001}
   ]]>
  </style>
 </defs>
 <g id="Camada_x0020_1">
  <metadata id="CorelCorpID_0Corel-Layer"/>
  <path class="fil0" d="M830.81 596.73c67.73,-84.18 319.18,-295.39 349.2,-368.21 38.05,-92.27 -16.61,-197.7 -112.16,-222.36 -108.87,-28.11 -163.81,51.22 -231,118.23 -59.83,59.67 -119.57,119.46 -179.25,179.28 -73.56,73.73 -56.34,65.54 -92.61,29.32l-268.31 -268.37c-72.21,-72.32 -168.8,-93.04 -246.85,-14.7 -78.03,78.33 -57.78,174.52 14.7,246.86 59.81,59.7 119.65,119.39 179.27,179.26 146.46,147.07 132.08,108.94 59.76,181.64 -59.59,59.91 -119.6,119.42 -179.29,179.23 -66.95,67.09 -146.41,122.4 -118.23,231.14 24.79,95.69 130.45,149.99 222.4,112.07 67.26,-27.73 288.94,-282.57 368.2,-349.29 76.32,63.28 167.34,165.62 240.2,238.25 83.31,83.06 185.89,195.49 306.58,74.42 119.76,-120.14 10.33,-221.7 -74.4,-306.6 -62.61,-62.74 -190.53,-176.41 -238.21,-240.18z"/>
 </g>
</svg>
