<svg id="Capa_1" enable-background="new 0 0 512 512" height="512" viewBox="0 0 512 512" width="512" xmlns="http://www.w3.org/2000/svg"><g><path d="m496.801 143.905h-119.74c-8.394 0-15.199-6.805-15.199-15.199v-84.404c0-8.394 6.805-15.199 15.199-15.199h119.74c8.394 0 15.199 6.805 15.199 15.199v84.404c0 8.394-6.805 15.199-15.199 15.199z" fill="#dd636e"/><path d="m496.801 29.103h-20.611c8.394 0 15.199 6.805 15.199 15.199v84.404c0 8.394-6.805 15.199-15.199 15.199h20.611c8.394 0 15.199-6.805 15.199-15.199v-84.404c0-8.394-6.805-15.199-15.199-15.199z" fill="#da4a54"/><path d="m458.799 82.475-33.442-19.307c-3.102-1.791-6.978.448-6.978 4.029v38.615c0 3.581 3.877 5.82 6.978 4.029l33.442-19.307c3.102-1.792 3.102-6.268 0-8.059z" fill="#f6f1f1"/><path d="m490.559 316.76h-107.255c-7.093 0-12.843-5.75-12.843-12.843v-107.254c0-7.093 5.75-12.843 12.843-12.843h107.254c7.093 0 12.843 5.75 12.843 12.843v107.254c.001 7.093-5.749 12.843-12.842 12.843z" fill="#e27d47"/><path d="m490.559 183.821h-21.309c7.093 0 12.843 5.75 12.843 12.843v107.254c0 7.093-5.75 12.843-12.843 12.843h21.308c7.093 0 12.843-5.75 12.843-12.843v-107.255c0-7.093-5.75-12.842-12.842-12.842z" fill="#dd544f"/><circle cx="436.932" cy="262.114" fill="#f6f1f1" r="27.004"/><g><path d="m473.542 225.628c-4.265 0-7.721-3.456-7.721-7.721v-6.709c0-4.265 3.456-7.721 7.721-7.721s7.721 3.456 7.721 7.721v6.709c0 4.265-3.457 7.721-7.721 7.721z" fill="#f6f1f1"/></g><path d="m432.717 350.796c-33.183 2.058-59.925 28.978-61.794 62.172-.707 12.552 2.102 24.389 7.515 34.638.399.755.509 1.626.288 2.451l-6.402 23.894c-.67 2.502 1.619 4.791 4.121 4.121l22.255-5.963c.921-.247 1.896-.081 2.699.432 10.993 7.021 24.198 10.883 38.34 10.298 35.148-1.456 63.264-30.792 63.309-65.97.049-37.951-31.877-68.458-70.331-66.073z" fill="#95d6a4"/><path d="m436.931 350.665c-4.559 0-9.01.462-13.309 1.34 30.136 6.159 52.807 32.82 52.807 64.776 0 31.946-22.657 58.6-52.779 64.77 4.291.876 8.731 1.346 13.281 1.346 36.515 0 66.116-29.601 66.116-66.116s-29.601-66.116-66.116-66.116z" fill="#78c2a4"/><g><path d="m426.646 445.613c-4.364 0-8.726-1.66-12.048-4.981l-4.246-4.246c-3.015-3.016-3.015-7.904 0-10.92 3.016-3.014 7.904-3.014 10.92 0l4.246 4.246c.622.624 1.636.622 2.258 0l22.087-22.088c.622-.622.622-1.636 0-2.259l-4.245-4.244c-3.016-3.015-3.016-7.903-.001-10.919 3.012-3.016 7.901-3.016 10.919-.001l4.246 4.245c6.642 6.644 6.642 17.453.001 24.096l-22.088 22.089c-3.323 3.321-7.687 4.982-12.049 4.982z" fill="#f6f1f1"/></g><path d="m133.496 275.663-21.176-.002-31.835-.003-.004 48.757-.004 48.938c-.001 7.493 6.073 13.568 13.567 13.569h4.699c7.493.001 13.568-6.073 13.569-13.567l.003-33.518c0-3.354 1.94-6.405 4.978-7.828l11.223-5.258c3.037-1.423 4.977-4.474 4.978-7.828z" fill="#365e7d"/><path d="m80.485 275.658-.003 30.651 53.011.004.003-30.65-21.176-.002z" fill="#2b4d66"/><path d="m159.205 286.798 101.202 42.114.017-194.663-101.209 42.097-19.828 12.351-.007 78.915z" fill="#e27d47"/><path d="m159.205 286.798-88.507-.008c-8.289-.001-15.008-6.721-15.007-15.01l.007-80.435c.001-8.289 6.721-15.008 15.01-15.007l88.507.008z" fill="#f6f1f1"/><path d="m141.128 176.345h18.082v110.452h-18.082z" fill="#dae4ea"/><path d="m242.116 141.864-.016 179.43 18.307 7.618.017-194.663z" fill="#dd544f"/><path d="m30.47 262.033 25.222.002.005-60.945-25.222-.002c-16.83-.002-30.474 13.64-30.475 30.47-.002 16.829 13.64 30.473 30.47 30.475z" fill="#e27d47"/><g><path d="m31.147 277.966s0 0-.001 0c-4.264 0-7.72-3.457-7.72-7.722l.007-77.37c0-4.264 3.457-7.72 7.721-7.72h.001c4.264 0 7.72 3.457 7.72 7.722l-.007 77.37c0 4.263-3.458 7.72-7.721 7.72z" fill="#2b4d66"/></g><g><path d="m260.406 345.805s0 0-.001 0c-4.264 0-7.72-3.457-7.72-7.722l.019-213.007c0-4.264 3.457-7.72 7.721-7.72h.001c4.264 0 7.72 3.457 7.72 7.722l-.019 213.007c0 4.264-3.458 7.72-7.721 7.72z" fill="#2b4d66"/></g><g><path d="m200.069 322.666s0 0-.001 0c-4.264 0-7.72-3.457-7.72-7.722l.015-166.74c0-4.264 3.457-7.72 7.721-7.72h.001c4.264 0 7.72 3.457 7.72 7.722l-.015 166.74c0 4.263-3.457 7.72-7.721 7.72z" fill="#2b4d66"/></g><path d="m117.094 208.476-20.22-.002c-7.418-.001-13.431-6.015-13.43-13.432l.002-18.703 47.082.004-.002 18.703c0 7.418-6.014 13.431-13.432 13.43z" fill="#e27d47"/><path d="m114.064 176.342-.002 18.703c-.001 7.418-6.015 13.431-13.432 13.43l16.464.001c7.418.001 13.432-6.012 13.432-13.43l.002-18.703z" fill="#dd544f"/><g><path d="m330.244 239.28h-31.005c-4.265 0-7.721-3.456-7.721-7.721s3.456-7.721 7.721-7.721h31.005c4.265 0 7.721 3.456 7.721 7.721s-3.457 7.721-7.721 7.721z" fill="#365e7d"/></g><g><path d="m289.938 168.612c-1.975 0-3.952-.754-5.459-2.261-3.016-3.015-3.016-7.904-.001-10.919l21.923-21.924c3.016-3.016 7.905-3.015 10.919-.001 3.016 3.015 3.016 7.904.001 10.919l-21.923 21.924c-1.508 1.508-3.485 2.262-5.46 2.262z" fill="#365e7d"/></g><g><path d="m311.267 331.627c-1.975 0-3.952-.754-5.46-2.261l-21.924-21.924c-3.015-3.016-3.015-7.904 0-10.92 3.016-3.014 7.904-3.014 10.92 0l21.924 21.924c3.015 3.016 3.015 7.904 0 10.92-1.509 1.507-3.485 2.261-5.46 2.261z" fill="#365e7d"/></g></g></svg>